<svg width="24" height="24" viewBox="0 0 24 24" fill="none" xmlns="http://www.w3.org/2000/svg">
<path d="M20.3171 23.999C16.9699 23.9915 13.6226 23.9942 10.2753 23.9942C6.94619 23.9942 3.61711 23.991 0.287501 24.0001C0.0501693 24.0006 -0.00501169 23.9433 0.000345689 23.7101C0.0169536 22.9602 0.00409586 22.2098 0.00677455 21.46C0.0105247 20.5461 0.627695 19.8327 1.53202 19.7223C1.70667 19.7008 1.72435 19.6408 1.72274 19.4961C1.71685 18.7816 1.72596 18.0671 1.71578 17.3531C1.71364 17.18 1.75757 17.1318 1.93436 17.1323C7.50389 17.1371 13.074 17.1371 18.6435 17.1323C18.8203 17.1318 18.8642 17.18 18.8615 17.3531C18.8519 18.0671 18.861 18.7816 18.8551 19.4961C18.8535 19.6408 18.8707 19.7008 19.0458 19.7223C19.9502 19.8327 20.5673 20.5461 20.5705 21.46C20.5738 22.219 20.5636 22.9779 20.5764 23.7369C20.5802 23.9443 20.5288 23.9995 20.3171 23.999Z" fill="white"/>
<path d="M18.8653 15.9762C18.8691 16.2458 18.7892 16.2994 18.5417 16.2849C18.1683 16.2624 17.7917 16.2656 17.4178 16.2838C17.2024 16.2945 17.137 16.2458 17.1376 16.0147C17.1477 13.5593 17.1456 11.1044 17.1435 8.64955C17.1413 5.29097 14.9276 2.55093 11.6462 1.8418C7.93305 1.03833 4.13038 3.64276 3.53517 7.39263C3.4666 7.82625 3.43231 8.25988 3.43285 8.69833C3.43499 11.1355 3.43071 13.5727 3.43981 16.0099C3.44035 16.2329 3.38838 16.2951 3.16444 16.2849C2.74603 16.2645 2.32548 16.272 1.90653 16.2827C1.75117 16.2865 1.71688 16.2356 1.71688 16.0876C1.72277 13.472 1.68634 10.8557 1.73242 8.24058C1.80153 4.31652 4.80434 0.850196 8.67826 0.146426C13.3274 -0.698312 17.6685 2.18966 18.6767 6.80356C18.801 7.37119 18.8589 7.94793 18.8584 8.53056C18.8562 9.70869 18.8578 10.8874 18.8578 12.066C18.8578 13.369 18.8482 14.6726 18.8653 15.9762Z" fill="white"/>
<path d="M14.2193 11.8859C14.1181 12.0108 14.0404 12.0392 13.8957 11.9395C13.4468 11.6297 12.9389 11.4416 12.393 11.2786C13.0407 10.7426 13.4559 10.0946 13.6375 9.30078C14.0613 7.45265 12.8168 5.54502 10.9578 5.19716C9.03017 4.83643 7.18616 6.12122 6.90972 8.01813C6.89204 8.14141 6.85132 8.26952 6.869 8.38851C6.92686 8.78837 6.77685 9.0703 6.46881 9.3249C6.10557 9.62453 5.82699 10.0137 5.48305 10.4162C4.91999 8.76693 5.05071 7.23718 5.95557 5.80284C7.07526 4.02867 9.21125 3.10193 11.1935 3.49964C13.3847 3.93916 14.9994 5.54931 15.3583 7.71047C15.6171 9.26541 15.2147 10.6612 14.2193 11.8859Z" fill="white"/>
<path d="M11.9858 8.82268C11.8101 9.8309 10.8709 10.4725 9.89429 10.2195C9.64249 10.1546 9.47909 10.2104 9.29158 10.3546C8.12689 11.2497 7.47865 12.4611 7.13202 13.8579C6.95523 14.5702 6.8663 15.297 6.86951 16.0308C6.87058 16.2549 6.79237 16.2908 6.59789 16.2828C6.25073 16.2688 5.90197 16.279 5.55427 16.279C5.22372 16.279 4.89264 16.2645 4.56369 16.2838C4.34618 16.2967 4.27761 16.2458 4.28725 16.0131C4.35047 14.5584 4.7512 13.2061 5.48945 11.9545C6.22555 10.7057 7.19899 9.67439 8.38512 8.84466C8.51155 8.75622 8.57744 8.67475 8.58119 8.50751C8.60423 7.51698 9.47481 6.75854 10.46 6.85502C11.426 6.94936 12.1497 7.88307 11.9858 8.82268Z" fill="white"/>
<path d="M15.1253 16.2854C14.7251 16.2591 14.3222 16.2747 13.921 16.2811C13.7838 16.2833 13.7238 16.2597 13.7077 16.0978C13.5652 14.6715 12.5002 13.7121 11.0698 13.7072C10.9181 13.7067 10.7665 13.7072 10.6149 13.7072C9.86596 13.741 9.1411 13.6268 8.43661 13.368C8.25231 13.3004 8.2132 13.2291 8.29785 13.0426C8.47947 12.6433 8.67983 12.2574 8.93966 11.9031C9.00235 11.8168 9.05324 11.7589 9.17807 11.8055C9.66291 11.9867 10.1703 12.0103 10.6808 11.9926C11.4003 11.9668 12.1102 12.0194 12.7772 12.3163C14.3554 13.0196 15.2276 14.2411 15.4264 15.9547C15.4553 16.2029 15.4017 16.3036 15.1253 16.2854Z" fill="white"/>
<path d="M23.9965 15.7017C23.8883 17.0567 22.9325 18.2616 21.628 18.6878C21.0473 18.8775 20.451 18.8491 19.8553 18.8518C19.7272 18.8529 19.7133 18.7864 19.7138 18.6846C19.716 18.2209 19.7186 17.7573 19.7122 17.2936C19.7101 17.1553 19.7733 17.1339 19.8906 17.1344C20.2024 17.1355 20.5185 17.1591 20.8244 17.1157C21.6028 17.0042 22.1664 16.4151 22.2714 15.6154C22.2939 15.4439 22.3534 15.4123 22.5023 15.4192C22.7156 15.4289 22.9299 15.4219 23.1436 15.4219C23.3397 15.4219 23.5374 15.438 23.7313 15.4176C23.9665 15.3924 24.0142 15.4835 23.9965 15.7017Z" fill="white"/>
</svg>
