<svg width="13" height="13" viewBox="0 0 13 13" fill="none" xmlns="http://www.w3.org/2000/svg">
<path d="M9.51792 8.69333L12.0163 11.1912L11.1909 12.0166L8.69309 9.51816C7.76368 10.2632 6.60767 10.6684 5.4165 10.6667C2.5185 10.6667 0.166504 8.31475 0.166504 5.41675C0.166504 2.51875 2.5185 0.166748 5.4165 0.166748C8.3145 0.166748 10.6665 2.51875 10.6665 5.41675C10.6682 6.60791 10.263 7.76393 9.51792 8.69333ZM8.34775 8.2605C9.08807 7.49918 9.50151 6.47866 9.49984 5.41675C9.49984 3.16041 7.67225 1.33341 5.4165 1.33341C3.16017 1.33341 1.33317 3.16041 1.33317 5.41675C1.33317 7.6725 3.16017 9.50008 5.4165 9.50008C6.47842 9.50175 7.49894 9.08831 8.26025 8.348L8.34775 8.2605Z" fill="white"/>
</svg>
